<svg xmlns="http://www.w3.org/2000/svg" xmlns:xlink="http://www.w3.org/1999/xlink" xmlns:lucid="lucid" width="1370" height="1066"><g transform="translate(-440 -80)" lucid:page-tab-id="C.2L-R.dF2yn"><path d="M460 106c0-3.3 2.7-6 6-6h148c3.3 0 6 2.7 6 6v108c0 3.3-2.7 6-6 6H466c-3.3 0-6-2.7-6-6z" stroke="#5e5e5e" stroke-width="5" fill="#fff"/><use xlink:href="#a" transform="matrix(1,0,0,1,460,100) translate(14.647901234567948 64.92777777777778)"/><path d="M540 225v24.8m0 24.78v49.6m0 24.78v49.58m0 24.8v49.58m0 24.8v49.57m0 24.78v49.6m0 24.78v49.58m0 24.8v49.58m0 24.8v49.57m0 24.78v49.6m0 24.78v49.58m0 24.8v49.58m0 24.8v24.78" stroke="#5e5e5e" stroke-width="5" fill="none"/><path d="M542.5 225.06h-5v-2.56h5z" fill="#5e5e5e"/><path d="M540 1117.44v2.56" stroke="#5e5e5e" stroke-width="5" fill="none"/><path d="M720 106c0-3.3 2.7-6 6-6h148c3.3 0 6 2.7 6 6v108c0 3.3-2.7 6-6 6H726c-3.3 0-6-2.7-6-6z" stroke="#5e5e5e" stroke-width="5" fill="#fff"/><use xlink:href="#b" transform="matrix(1,0,0,1,719.9999999999999,100) translate(55.541728395061746 64.92777777777778)"/><path d="M800 225v24.8m0 24.78v49.6m0 24.78v49.58m0 24.8v49.58m0 24.8v49.57m0 24.78v49.6m0 24.78v49.58m0 24.8v49.58m0 24.8v49.57m0 24.78v49.6m0 24.78v49.58m0 24.8v49.58m0 24.8v24.78" stroke="#5e5e5e" stroke-width="5" fill="none"/><path d="M802.5 225.06h-5v-2.56h5z" fill="#5e5e5e"/><path d="M800 1117.44v2.56" stroke="#5e5e5e" stroke-width="5" fill="none"/><path d="M520 286c0-3.3 2.7-6 6-6h28c3.3 0 6 2.7 6 6v788c0 3.3-2.7 6-6 6h-28c-3.3 0-6-2.7-6-6z" stroke="#5e5e5e" stroke-width="5" fill="#fff"/><path d="M565 341.1H754.3" stroke="#5e5e5e" stroke-width="5" fill="none"/><path d="M565.06 343.6h-2.56v-5h2.56z" fill="#5e5e5e"/><path d="M771.07 341.1l-14.26 4.63v-9.27z" stroke="#5e5e5e" stroke-width="5" fill="#5e5e5e"/><use xlink:href="#c" transform="matrix(1,0,0,1,612.6655119200597,313.09096992061484) translate(0 15.999999999999995)"/><path d="M780 346c0-3.3 2.7-6 6-6h28c3.3 0 6 2.7 6 6v728c0 3.3-2.7 6-6 6h-28c-3.3 0-6-2.7-6-6zM1150 106c0-3.3 2.7-6 6-6h208c3.3 0 6 2.7 6 6v108c0 3.3-2.7 6-6 6h-208c-3.3 0-6-2.7-6-6z" stroke="#5e5e5e" stroke-width="5" fill="#fff"/><use xlink:href="#d" transform="matrix(1,0,0,1,1150,100) translate(25.043580246913642 64.92777777777778)"/><path d="M1260 225v24.24m0 24.23v48.47m0 24.24v48.47m0 24.24v48.46m0 24.24v48.47m0 24.24v48.48m0 24.23v48.5m0 24.22v48.47m0 24.23v48.47m0 24.24v48.47m0 24.25v48.47m0 24.24v48.47m0 24.23v24.24" stroke="#5e5e5e" stroke-width="5" fill="none"/><path d="M1262.5 225.06h-5v-2.56h5z" fill="#5e5e5e"/><path d="M1260 1097.44v2.56M845 721.03h779.77" stroke="#5e5e5e" stroke-width="5" fill="none"/><path d="M845.06 723.53h-2.56v-5h2.56z" fill="#5e5e5e"/><path d="M1641.3 721.2l-14.32 4.5.1-9.28z" stroke="#5e5e5e" stroke-width="5" fill="#5e5e5e"/><use xlink:href="#e" transform="matrix(1,0,0,1,1104.9130180608572,693.0278906442744) translate(0 15.999999999999995)"/><path d="M1645 754.52h-7.48m-9.98 0h-14.96m-9.97 0h-14.95m-9.98 0h-14.96m-9.96 0h-14.97m-9.97 0h-14.96m-9.98 0h-14.96m-9.97 0h-14.96m-9.98 0h-14.97m-9.97 0h-14.97m-9.98 0h-14.96m-9.98 0h-14.96m-9.97 0h-14.96m-10 0h-14.95m-9.97 0h-14.97m-9.96 0h-14.96m-9.98 0h-14.96m-9.97 0h-14.96m-9.97 0h-14.96m-9.97 0h-14.97m-9.97 0h-14.96m-9.98 0h-14.96m-9.97 0h-14.97m-9.98 0H1064m-10 0h-14.95m-9.97 0h-14.96m-9.98 0h-14.96m-9.97 0h-14.95m-9.98 0H939.3m-9.97 0h-14.96m-9.97 0h-14.96m-9.98 0H864.5m-9.97 0h-7.48" stroke="#5e5e5e" stroke-width="5" fill="none"/><path d="M1647.5 757.02h-2.56v-5h2.56z" fill="#5e5e5e"/><path d="M864.63 744.34l-17.22 10.18 17.23 10.18" stroke="#5e5e5e" stroke-width="5" fill="none"/><use xlink:href="#f" transform="matrix(1,0,0,1,1190.3827160493827,758.5162627372978) translate(0 14.222222222222223)"/><path d="M580 426c0-3.3 2.7-6 6-6h88c3.3 0 6 2.7 6 6v8c0 3.3-1.9 7.9-4.24 10.24l-1.52 1.52C671.9 448.1 667.3 450 664 450h-78c-3.3 0-6-2.7-6-6z" fill="#fff"/><path d="M680 420v20l-10 10h-90" stroke="#5e5e5e" stroke-width="5" fill="none"/><path d="M580 426c0-3.3 2.7-6 6-6h1188c3.3 0 6 2.7 6 6v548c0 3.3-2.7 6-6 6H586c-3.3 0-6-2.7-6-6z" stroke="#5e5e5e" stroke-width="5" fill="none"/><use xlink:href="#g" transform="matrix(1,0,0,1,588,420) translate(0 19.888888888888886)"/><path d="M824 484h379.4c.17 0 .3-.15.3-.33 0-.18.16-.32.34-.32h9.23" stroke="#5e5e5e" stroke-width="5" fill="none"/><path d="M824.06 486.5h-1.56v-5h1.56z" fill="#5e5e5e"/><path d="M1230.04 483.35l-14.27 4.63v-9.27z" stroke="#5e5e5e" stroke-width="5" fill="#5e5e5e"/><use xlink:href="#h" transform="matrix(1,0,0,1,949.1595845058617,488) translate(0 15.999999999999995)"/><path d="M1240 486c0-3.3 2.7-6 6-6h28c3.3 0 6 2.7 6 6v28c0 3.3-2.7 6-6 6h-28c-3.3 0-6-2.7-6-6z" stroke="#5e5e5e" stroke-width="5" fill="#fff"/><path d="M1236.23 518.47h-7.43m-9.9 0h-14.84m-9.9 0h-14.84m-9.9 0h-14.84m-9.9 0h-14.85m-9.9 0h-14.84m-9.9 0h-14.85m-9.9 0h-14.84m-9.9 0h-14.83m-9.9 0h-14.85m-9.9 0H981.4m-9.9 0h-14.84m-9.9 0H931.9m-9.9 0h-14.85m-9.9 0h-14.84m-9.9 0h-7.4l-.08.03-.03.07-.03.07-.07.03h-5.83m-7.77 0h-11.66m-7.77 0h-5.82" stroke="#5e5e5e" stroke-width="5" fill="none"/><path d="M1238.58 518.32l2.65 2.65h-5.07v-5h1.78z" fill="#5e5e5e"/><path d="M843.63 508.5l-17.22 10.17 17.23 10.18" stroke="#5e5e5e" stroke-width="5" fill="none"/><use xlink:href="#i" transform="matrix(1,0,0,1,1010.8922502939922,522.47055338367) translate(0 14.222222222222223)"/><path d="M600 586c0-3.3 2.7-6 6-6h88c3.3 0 6 2.7 6 6v8c0 3.3-1.9 7.9-4.24 10.24l-1.52 1.52C691.9 608.1 687.3 610 684 610h-78c-3.3 0-6-2.7-6-6z" fill="#fff"/><path d="M700 580v20l-10 10h-90" stroke="#5e5e5e" stroke-width="5" fill="none"/><path d="M600 586c0-3.3 2.7-6 6-6h1128c3.3 0 6 2.7 6 6v253.8c0 3.3-2.7 6-6 6H606c-3.3 0-6-2.7-6-6z" stroke="#5e5e5e" stroke-width="5" fill="none"/><use xlink:href="#j" transform="matrix(1,0,0,1,608,580) translate(0 19.888888888888886)"/><use xlink:href="#k" transform="matrix(1,0,0,1,612,618) translate(0 19.888888888888886)"/><use xlink:href="#l" transform="matrix(1,0,0,1,612,618) translate(147.27777777777771 19.888888888888886)"/><use xlink:href="#m" transform="matrix(1,0,0,1,612,618) translate(168.32716049382708 19.888888888888886)"/><path d="M800 666c0-3.3 2.7-6 6-6h28c3.3 0 6 2.7 6 6v153.8c0 3.3-2.7 6-6 6h-28c-3.3 0-6-2.7-6-6z" stroke="#5e5e5e" stroke-width="5" fill="#fff"/><path d="M825 606.74h51.5c3.3 0 6 2.7 6 6v57.64c0 3.3-2.7 6-6 6h-9.14" stroke="#5e5e5e" stroke-width="5" fill="none"/><path d="M825.06 609.24h-2.56v-5h2.56z" fill="#5e5e5e"/><path d="M850.6 676.38l14.26-4.64V681z" stroke="#5e5e5e" stroke-width="5" fill="#5e5e5e"/><use xlink:href="#n" transform="matrix(1,0,0,1,883.176385863914,667.6682995077479) translate(0 15.999999999999995)"/><path d="M795 803.33h-7.63m-10.18 0h-15.27m-10.18 0H736.5m-10.2 0h-15.25m-10.18 0H685.6m-10.17 0h-15.26m-10.17 0h-15.27m-10.17 0H609.3m-10.18 0h-15.27m-10.17 0h-7.63" stroke="#5e5e5e" stroke-width="5" fill="none"/><path d="M797.5 805.83h-2.56v-5h2.56z" fill="#5e5e5e"/><path d="M583.63 793.15l-17.22 10.18 17.23 10.18" stroke="#5e5e5e" stroke-width="5" fill="none"/><path d="M1550 106c0-3.3 2.7-6 6-6h228c3.3 0 6 2.7 6 6v108c0 3.3-2.7 6-6 6h-228c-3.3 0-6-2.7-6-6z" stroke="#5e5e5e" stroke-width="5" fill="#fff"/><use xlink:href="#o" transform="matrix(1,0,0,1,1550,100) translate(22.517037037037106 64.92777777777778)"/><path d="M1670 225v24.24m0 24.23v48.47m0 24.24v48.47m0 24.24v48.46m0 24.24v48.47m0 24.24v48.48m0 24.23v48.5m0 24.22v48.47m0 24.23v48.47m0 24.24v48.47m0 24.25v48.47m0 24.24v48.47m0 24.23v24.24" stroke="#5e5e5e" stroke-width="5" fill="none"/><path d="M1672.5 225.06h-5v-2.56h5z" fill="#5e5e5e"/><path d="M1670 1097.44v2.56" stroke="#5e5e5e" stroke-width="5" fill="none"/><path d="M1650 726.4c0-3.3 2.7-6 6-6h28c3.3 0 6 2.7 6 6v33c0 3.3-2.7 6-6 6h-28c-3.3 0-6-2.7-6-6z" stroke="#5e5e5e" stroke-width="5" fill="#fff"/><defs><path d="M35-132v-50h50v50H35zM35 0v-49h50V0H35" id="p"/><path d="M186 0v-106H76V0H24v-248h52v99h110v-99h50V0h-50" id="q"/><path d="M185-48c-13 30-37 53-82 52C43 2 14-33 14-96s30-98 90-98c62 0 83 45 84 108H66c0 31 8 55 39 56 18 0 30-7 34-22zm-45-69c5-46-57-63-70-21-2 6-4 13-4 21h74" id="r"/><path d="M133-34C117-15 103 5 69 4 32 3 11-16 11-54c-1-60 55-63 116-61 1-26-3-47-28-47-18 1-26 9-28 27l-52-2c7-38 36-58 82-57s74 22 75 68l1 82c-1 14 12 18 25 15v27c-30 8-71 5-69-32zm-48 3c29 0 43-24 42-57-32 0-66-3-65 30 0 17 8 27 23 27" id="s"/><path d="M25 0v-261h50V0H25" id="t"/><path d="M115-3C79 11 28 4 28-45v-112H4v-33h27l15-45h31v45h36v33H77v99c-1 23 16 31 38 25v30" id="u"/><path d="M114-157C55-157 80-60 75 0H25v-261h50l-1 109c12-26 28-41 61-42 86-1 58 113 63 194h-50c-7-57 23-157-34-157" id="v"/><path d="M147 0H94L2-248h55l64 206c17-72 42-137 63-206h54" id="w"/><path d="M25-224v-37h50v37H25zM25 0v-190h50V0H25" id="x"/><path d="M137-138c1-29-70-34-71-4 15 46 118 7 119 86 1 83-164 76-172 9l43-7c4 19 20 25 44 25 33 8 57-30 24-41C81-84 22-81 20-136c-2-80 154-74 161-7" id="y"/><path d="M110-194c64 0 96 36 96 99 0 64-35 99-97 99-61 0-95-36-95-99 0-62 34-99 96-99zm-1 164c35 0 45-28 45-65 0-40-10-65-43-65-34 0-45 26-45 65 0 36 10 65 43 65" id="z"/><path d="M135-150c-39-12-60 13-60 57V0H25l-1-190h47c2 13-1 29 3 40 6-28 27-53 61-41v41" id="A"/><g id="a"><use transform="matrix(0.05617283950617281,0,0,0.05617283950617281,0,0)" xlink:href="#p"/><use transform="matrix(0.05617283950617281,0,0,0.05617283950617281,6.684567901234564,0)" xlink:href="#q"/><use transform="matrix(0.05617283950617281,0,0,0.05617283950617281,21.23333333333332,0)" xlink:href="#r"/><use transform="matrix(0.05617283950617281,0,0,0.05617283950617281,32.46790123456788,0)" xlink:href="#s"/><use transform="matrix(0.05617283950617281,0,0,0.05617283950617281,43.702469135802446,0)" xlink:href="#t"/><use transform="matrix(0.05617283950617281,0,0,0.05617283950617281,49.31975308641972,0)" xlink:href="#u"/><use transform="matrix(0.05617283950617281,0,0,0.05617283950617281,56.00432098765429,0)" xlink:href="#v"/><use transform="matrix(0.05617283950617281,0,0,0.05617283950617281,68.30617283950613,0)" xlink:href="#w"/><use transform="matrix(0.05617283950617281,0,0,0.05617283950617281,81.39444444444439,0)" xlink:href="#x"/><use transform="matrix(0.05617283950617281,0,0,0.05617283950617281,87.01172839506167,0)" xlink:href="#y"/><use transform="matrix(0.05617283950617281,0,0,0.05617283950617281,98.24629629629622,0)" xlink:href="#x"/><use transform="matrix(0.05617283950617281,0,0,0.05617283950617281,103.8635802469135,0)" xlink:href="#u"/><use transform="matrix(0.05617283950617281,0,0,0.05617283950617281,110.54814814814806,0)" xlink:href="#z"/><use transform="matrix(0.05617283950617281,0,0,0.05617283950617281,122.84999999999991,0)" xlink:href="#A"/><path d="M-1 1.1h132.73v2.1H-1z"/></g><g id="b"><use transform="matrix(0.05617283950617281,0,0,0.05617283950617281,0,0)" xlink:href="#p"/><use transform="matrix(0.05617283950617281,0,0,0.05617283950617281,6.684567901234564,0)" xlink:href="#w"/><use transform="matrix(0.05617283950617281,0,0,0.05617283950617281,19.77283950617283,0)" xlink:href="#x"/><use transform="matrix(0.05617283950617281,0,0,0.05617283950617281,25.39012345679011,0)" xlink:href="#y"/><use transform="matrix(0.05617283950617281,0,0,0.05617283950617281,36.62469135802467,0)" xlink:href="#x"/><use transform="matrix(0.05617283950617281,0,0,0.05617283950617281,42.24197530864195,0)" xlink:href="#u"/><path d="M-1 1.1h50.94v2.1H-1z"/></g><path fill="#333" d="M137-138c1-29-70-34-71-4 15 46 118 7 119 86 1 83-164 76-172 9l43-7c4 19 20 25 44 25 33 8 57-30 24-41C81-84 22-81 20-136c-2-80 154-74 161-7" id="B"/><path fill="#333" d="M115-3C79 11 28 4 28-45v-112H4v-33h27l15-45h31v45h36v33H77v99c-1 23 16 31 38 25v30" id="C"/><path fill="#333" d="M133-34C117-15 103 5 69 4 32 3 11-16 11-54c-1-60 55-63 116-61 1-26-3-47-28-47-18 1-26 9-28 27l-52-2c7-38 36-58 82-57s74 22 75 68l1 82c-1 14 12 18 25 15v27c-30 8-71 5-69-32zm-48 3c29 0 43-24 42-57-32 0-66-3-65 30 0 17 8 27 23 27" id="D"/><path fill="#333" d="M135-150c-39-12-60 13-60 57V0H25l-1-190h47c2 13-1 29 3 40 6-28 27-53 61-41v41" id="E"/><path fill="#333" d="M67-93c0 74 22 123 53 168H70C40 30 18-18 18-93s22-123 52-168h50c-32 44-53 94-53 168" id="F"/><path fill="#333" d="M128 0H69L1-190h53L99-40l48-150h52" id="G"/><path fill="#333" d="M25-224v-37h50v37H25zM25 0v-190h50V0H25" id="H"/><path fill="#333" d="M24 0v-248h52V0H24" id="I"/><path fill="#333" d="M24-248c120-7 223 5 221 122C244-46 201 0 124 0H24v-248zM76-40c74 7 117-18 117-86 0-67-45-88-117-82v168" id="J"/><path fill="#333" d="M102-93c0 74-22 123-52 168H0C30 29 54-18 53-93c0-74-22-123-53-168h50c30 45 52 94 52 168" id="K"/><g id="c"><use transform="matrix(0.05555555555555554,0,0,0.05555555555555554,0,0)" xlink:href="#B"/><use transform="matrix(0.05555555555555554,0,0,0.05555555555555554,11.111111111111107,0)" xlink:href="#C"/><use transform="matrix(0.05555555555555554,0,0,0.05555555555555554,17.722222222222214,0)" xlink:href="#D"/><use transform="matrix(0.05555555555555554,0,0,0.05555555555555554,28.833333333333325,0)" xlink:href="#E"/><use transform="matrix(0.05555555555555554,0,0,0.05555555555555554,36.6111111111111,0)" xlink:href="#C"/><use transform="matrix(0.05555555555555554,0,0,0.05555555555555554,43.22222222222221,0)" xlink:href="#F"/><use transform="matrix(0.05555555555555554,0,0,0.05555555555555554,49.833333333333314,0)" xlink:href="#G"/><use transform="matrix(0.05555555555555554,0,0,0.05555555555555554,60.94444444444443,0)" xlink:href="#H"/><use transform="matrix(0.05555555555555554,0,0,0.05555555555555554,66.49999999999997,0)" xlink:href="#B"/><use transform="matrix(0.05555555555555554,0,0,0.05555555555555554,77.61111111111109,0)" xlink:href="#H"/><use transform="matrix(0.05555555555555554,0,0,0.05555555555555554,83.16666666666664,0)" xlink:href="#C"/><use transform="matrix(0.05555555555555554,0,0,0.05555555555555554,89.77777777777776,0)" xlink:href="#I"/><use transform="matrix(0.05555555555555554,0,0,0.05555555555555554,95.33333333333331,0)" xlink:href="#J"/><use transform="matrix(0.05555555555555554,0,0,0.05555555555555554,109.7222222222222,0)" xlink:href="#K"/></g><path d="M67-125c0 53 21 87 73 88 37 1 54-22 65-47l45 17C233-25 199 4 140 4 58 4 20-42 15-125 8-235 124-281 211-232c18 10 29 29 36 50l-46 12c-8-25-30-41-62-41-52 0-71 34-72 86" id="L"/><path d="M85 4C-2 5 27-109 22-190h50c7 57-23 150 33 157 60-5 35-97 40-157h50l1 190h-47c-2-12 1-28-3-38-12 25-28 42-61 42" id="M"/><path d="M135-194c87-1 58 113 63 194h-50c-7-57 23-157-34-157-59 0-34 97-39 157H25l-1-190h47c2 12-1 28 3 38 12-26 28-41 61-42" id="N"/><path d="M136-208V0H84v-208H4v-40h212v40h-80" id="O"/><path d="M220-157c-53 9-28 100-34 157h-49v-107c1-27-5-49-29-50C55-147 81-57 75 0H25l-1-190h47c2 12-1 28 3 38 10-53 101-56 108 0 13-22 24-43 59-42 82 1 51 116 57 194h-49v-107c-1-25-5-48-29-50" id="P"/><path d="M24-248c120-7 223 5 221 122C244-46 201 0 124 0H24v-248zM76-40c74 7 117-18 117-86 0-67-45-88-117-82v168" id="Q"/><g id="d"><use transform="matrix(0.05617283950617281,0,0,0.05617283950617281,0,0)" xlink:href="#L"/><use transform="matrix(0.05617283950617281,0,0,0.05617283950617281,14.548765432098756,0)" xlink:href="#M"/><use transform="matrix(0.05617283950617281,0,0,0.05617283950617281,26.8506172839506,0)" xlink:href="#A"/><use transform="matrix(0.05617283950617281,0,0,0.05617283950617281,34.714814814814794,0)" xlink:href="#A"/><use transform="matrix(0.05617283950617281,0,0,0.05617283950617281,42.57901234567899,0)" xlink:href="#r"/><use transform="matrix(0.05617283950617281,0,0,0.05617283950617281,53.81358024691355,0)" xlink:href="#N"/><use transform="matrix(0.05617283950617281,0,0,0.05617283950617281,66.1154320987654,0)" xlink:href="#u"/><use transform="matrix(0.05617283950617281,0,0,0.05617283950617281,72.79999999999995,0)" xlink:href="#O"/><use transform="matrix(0.05617283950617281,0,0,0.05617283950617281,84.7086419753086,0)" xlink:href="#x"/><use transform="matrix(0.05617283950617281,0,0,0.05617283950617281,90.32592592592587,0)" xlink:href="#P"/><use transform="matrix(0.05617283950617281,0,0,0.05617283950617281,108.30123456790118,0)" xlink:href="#r"/><use transform="matrix(0.05617283950617281,0,0,0.05617283950617281,119.53580246913573,0)" xlink:href="#p"/><use transform="matrix(0.05617283950617281,0,0,0.05617283950617281,126.2203703703703,0)" xlink:href="#Q"/><use transform="matrix(0.05617283950617281,0,0,0.05617283950617281,140.76913580246904,0)" xlink:href="#s"/><use transform="matrix(0.05617283950617281,0,0,0.05617283950617281,152.0037037037036,0)" xlink:href="#u"/><use transform="matrix(0.05617283950617281,0,0,0.05617283950617281,158.68827160493817,0)" xlink:href="#r"/><path d="M-1 1.1h171.94v2.1H-1z"/></g><path fill="#333" d="M195-6C206 82 75 100 31 46c-4-6-6-13-8-21l49-6c3 16 16 24 34 25 40 0 42-37 40-79-11 22-30 35-61 35-53 0-70-43-70-97 0-56 18-96 73-97 30 0 46 14 59 34l2-30h47zm-90-29c32 0 41-27 41-63 0-35-9-62-40-62-32 0-39 29-40 63 0 36 9 62 39 62" id="R"/><path fill="#333" d="M185-48c-13 30-37 53-82 52C43 2 14-33 14-96s30-98 90-98c62 0 83 45 84 108H66c0 31 8 55 39 56 18 0 30-7 34-22zm-45-69c5-46-57-63-70-21-2 6-4 13-4 21h74" id="S"/><path fill="#333" d="M175 0L67-191c6 58 2 128 3 191H24v-248h59L193-55c-6-58-2-129-3-193h46V0h-61" id="T"/><path fill="#333" d="M144 0l-44-69L55 0H2l70-98-66-92h53l41 62 40-62h54l-67 91 71 99h-54" id="U"/><path fill="#333" d="M199 0l-22-63H83L61 0H9l90-248h61L250 0h-51zm-33-102l-36-108c-10 38-24 72-36 108h72" id="V"/><path fill="#333" d="M135-194c53 0 70 44 70 98 0 56-19 98-73 100-31 1-45-17-59-34 3 33 2 69 2 105H25l-1-265h48c2 10 0 23 3 31 11-24 29-35 60-35zM114-30c33 0 39-31 40-66 0-38-9-64-40-64-56 0-55 130 0 130" id="W"/><path fill="#333" d="M110-194c64 0 96 36 96 99 0 64-35 99-97 99-61 0-95-36-95-99 0-62 34-99 96-99zm-1 164c35 0 45-28 45-65 0-40-10-65-43-65-34 0-45 26-45 65 0 36 10 65 43 65" id="X"/><path fill="#333" d="M135-194c87-1 58 113 63 194h-50c-7-57 23-157-34-157-59 0-34 97-39 157H25l-1-190h47c2 12-1 28 3 38 12-26 28-41 61-42" id="Y"/><path fill="#333" d="M220-157c-53 9-28 100-34 157h-49v-107c1-27-5-49-29-50C55-147 81-57 75 0H25l-1-190h47c2 12-1 28 3 38 10-53 101-56 108 0 13-22 24-43 59-42 82 1 51 116 57 194h-49v-107c-1-25-5-48-29-50" id="Z"/><path fill="#333" d="M147 0H94L2-248h55l64 206c17-72 42-137 63-206h54" id="aa"/><path fill="#333" d="M76-54c-1 42 2 86-19 110H24C36 42 46 24 48 0H25v-54h51" id="ab"/><path fill="#333" d="M186 0v-106H76V0H24v-248h52v99h110v-99h50V0h-50" id="ac"/><path fill="#333" d="M25 0v-261h50V0H25" id="ad"/><path fill="#333" d="M114-157C55-157 80-60 75 0H25v-261h50l-1 109c12-26 28-41 61-42 86-1 58 113 63 194h-50c-7-57 23-157-34-157" id="ae"/><g id="e"><use transform="matrix(0.05555555555555554,0,0,0.05555555555555554,0,0)" xlink:href="#R"/><use transform="matrix(0.05555555555555554,0,0,0.05555555555555554,12.166666666666663,0)" xlink:href="#S"/><use transform="matrix(0.05555555555555554,0,0,0.05555555555555554,23.27777777777777,0)" xlink:href="#C"/><use transform="matrix(0.05555555555555554,0,0,0.05555555555555554,29.88888888888888,0)" xlink:href="#T"/><use transform="matrix(0.05555555555555554,0,0,0.05555555555555554,44.277777777777764,0)" xlink:href="#S"/><use transform="matrix(0.05555555555555554,0,0,0.05555555555555554,55.38888888888887,0)" xlink:href="#U"/><use transform="matrix(0.05555555555555554,0,0,0.05555555555555554,66.49999999999997,0)" xlink:href="#C"/><use transform="matrix(0.05555555555555554,0,0,0.05555555555555554,73.11111111111109,0)" xlink:href="#V"/><use transform="matrix(0.05555555555555554,0,0,0.05555555555555554,87.49999999999997,0)" xlink:href="#W"/><use transform="matrix(0.05555555555555554,0,0,0.05555555555555554,99.66666666666663,0)" xlink:href="#W"/><use transform="matrix(0.05555555555555554,0,0,0.05555555555555554,111.83333333333329,0)" xlink:href="#X"/><use transform="matrix(0.05555555555555554,0,0,0.05555555555555554,123.99999999999994,0)" xlink:href="#H"/><use transform="matrix(0.05555555555555554,0,0,0.05555555555555554,129.5555555555555,0)" xlink:href="#Y"/><use transform="matrix(0.05555555555555554,0,0,0.05555555555555554,141.72222222222214,0)" xlink:href="#C"/><use transform="matrix(0.05555555555555554,0,0,0.05555555555555554,148.33333333333326,0)" xlink:href="#Z"/><use transform="matrix(0.05555555555555554,0,0,0.05555555555555554,166.11111111111103,0)" xlink:href="#S"/><use transform="matrix(0.05555555555555554,0,0,0.05555555555555554,177.22222222222214,0)" xlink:href="#Y"/><use transform="matrix(0.05555555555555554,0,0,0.05555555555555554,189.3888888888888,0)" xlink:href="#C"/><use transform="matrix(0.05555555555555554,0,0,0.05555555555555554,195.99999999999991,0)" xlink:href="#F"/><use transform="matrix(0.05555555555555554,0,0,0.05555555555555554,202.61111111111103,0)" xlink:href="#aa"/><use transform="matrix(0.05555555555555554,0,0,0.05555555555555554,215.5555555555555,0)" xlink:href="#H"/><use transform="matrix(0.05555555555555554,0,0,0.05555555555555554,221.11111111111103,0)" xlink:href="#B"/><use transform="matrix(0.05555555555555554,0,0,0.05555555555555554,232.22222222222214,0)" xlink:href="#H"/><use transform="matrix(0.05555555555555554,0,0,0.05555555555555554,237.77777777777771,0)" xlink:href="#C"/><use transform="matrix(0.05555555555555554,0,0,0.05555555555555554,244.3888888888888,0)" xlink:href="#ab"/><use transform="matrix(0.05555555555555554,0,0,0.05555555555555554,249.94444444444437,0)" xlink:href="#ac"/><use transform="matrix(0.05555555555555554,0,0,0.05555555555555554,264.3333333333332,0)" xlink:href="#S"/><use transform="matrix(0.05555555555555554,0,0,0.05555555555555554,275.4444444444443,0)" xlink:href="#D"/><use transform="matrix(0.05555555555555554,0,0,0.05555555555555554,286.5555555555554,0)" xlink:href="#ad"/><use transform="matrix(0.05555555555555554,0,0,0.05555555555555554,292.1111111111109,0)" xlink:href="#C"/><use transform="matrix(0.05555555555555554,0,0,0.05555555555555554,298.722222222222,0)" xlink:href="#ae"/><use transform="matrix(0.05555555555555554,0,0,0.05555555555555554,310.8888888888887,0)" xlink:href="#aa"/><use transform="matrix(0.05555555555555554,0,0,0.05555555555555554,323.8333333333331,0)" xlink:href="#H"/><use transform="matrix(0.05555555555555554,0,0,0.05555555555555554,329.38888888888863,0)" xlink:href="#B"/><use transform="matrix(0.05555555555555554,0,0,0.05555555555555554,340.4999999999997,0)" xlink:href="#H"/><use transform="matrix(0.05555555555555554,0,0,0.05555555555555554,346.05555555555526,0)" xlink:href="#C"/><use transform="matrix(0.05555555555555554,0,0,0.05555555555555554,352.66666666666634,0)" xlink:href="#X"/><use transform="matrix(0.05555555555555554,0,0,0.05555555555555554,364.83333333333303,0)" xlink:href="#E"/><use transform="matrix(0.05555555555555554,0,0,0.05555555555555554,372.6111111111108,0)" xlink:href="#K"/></g><g id="f"><use transform="matrix(0.04938271604938272,0,0,0.04938271604938272,0,0)" xlink:href="#V"/><use transform="matrix(0.04938271604938272,0,0,0.04938271604938272,12.790123456790125,0)" xlink:href="#W"/><use transform="matrix(0.04938271604938272,0,0,0.04938271604938272,23.60493827160494,0)" xlink:href="#W"/><use transform="matrix(0.04938271604938272,0,0,0.04938271604938272,34.41975308641975,0)" xlink:href="#X"/><use transform="matrix(0.04938271604938272,0,0,0.04938271604938272,45.23456790123457,0)" xlink:href="#H"/><use transform="matrix(0.04938271604938272,0,0,0.04938271604938272,50.17283950617284,0)" xlink:href="#Y"/><use transform="matrix(0.04938271604938272,0,0,0.04938271604938272,60.98765432098766,0)" xlink:href="#C"/><use transform="matrix(0.04938271604938272,0,0,0.04938271604938272,66.8641975308642,0)" xlink:href="#Z"/><use transform="matrix(0.04938271604938272,0,0,0.04938271604938272,82.66666666666667,0)" xlink:href="#S"/><use transform="matrix(0.04938271604938272,0,0,0.04938271604938272,92.54320987654322,0)" xlink:href="#Y"/><use transform="matrix(0.04938271604938272,0,0,0.04938271604938272,103.35802469135804,0)" xlink:href="#C"/></g><path fill="#333" d="M24 0v-248h52v208h133V0H24" id="af"/><g id="g"><use transform="matrix(0.0679012345679012,0,0,0.0679012345679012,0,0)" xlink:href="#af"/><use transform="matrix(0.0679012345679012,0,0,0.0679012345679012,14.870370370370363,0)" xlink:href="#X"/><use transform="matrix(0.0679012345679012,0,0,0.0679012345679012,29.740740740740726,0)" xlink:href="#X"/><use transform="matrix(0.0679012345679012,0,0,0.0679012345679012,44.611111111111086,0)" xlink:href="#W"/></g><path fill="#333" d="M67-125c0 53 21 87 73 88 37 1 54-22 65-47l45 17C233-25 199 4 140 4 58 4 20-42 15-125 8-235 124-281 211-232c18 10 29 29 36 50l-46 12c-8-25-30-41-62-41-52 0-71 34-72 86" id="ag"/><path fill="#333" d="M85 4C-2 5 27-109 22-190h50c7 57-23 150 33 157 60-5 35-97 40-157h50l1 190h-47c-2-12 1-28-3-38-12 25-28 42-61 42" id="ah"/><path fill="#333" d="M136-208V0H84v-208H4v-40h212v40h-80" id="ai"/><g id="h"><use transform="matrix(0.05555555555555554,0,0,0.05555555555555554,0,0)" xlink:href="#R"/><use transform="matrix(0.05555555555555554,0,0,0.05555555555555554,12.166666666666663,0)" xlink:href="#S"/><use transform="matrix(0.05555555555555554,0,0,0.05555555555555554,23.27777777777777,0)" xlink:href="#C"/><use transform="matrix(0.05555555555555554,0,0,0.05555555555555554,29.88888888888888,0)" xlink:href="#ag"/><use transform="matrix(0.05555555555555554,0,0,0.05555555555555554,44.277777777777764,0)" xlink:href="#ah"/><use transform="matrix(0.05555555555555554,0,0,0.05555555555555554,56.44444444444443,0)" xlink:href="#E"/><use transform="matrix(0.05555555555555554,0,0,0.05555555555555554,64.2222222222222,0)" xlink:href="#E"/><use transform="matrix(0.05555555555555554,0,0,0.05555555555555554,71.99999999999997,0)" xlink:href="#S"/><use transform="matrix(0.05555555555555554,0,0,0.05555555555555554,83.11111111111109,0)" xlink:href="#Y"/><use transform="matrix(0.05555555555555554,0,0,0.05555555555555554,95.27777777777774,0)" xlink:href="#C"/><use transform="matrix(0.05555555555555554,0,0,0.05555555555555554,101.88888888888886,0)" xlink:href="#ai"/><use transform="matrix(0.05555555555555554,0,0,0.05555555555555554,113.66666666666663,0)" xlink:href="#H"/><use transform="matrix(0.05555555555555554,0,0,0.05555555555555554,119.22222222222219,0)" xlink:href="#Z"/><use transform="matrix(0.05555555555555554,0,0,0.05555555555555554,136.99999999999994,0)" xlink:href="#S"/><use transform="matrix(0.05555555555555554,0,0,0.05555555555555554,148.11111111111106,0)" xlink:href="#F"/><use transform="matrix(0.05555555555555554,0,0,0.05555555555555554,154.72222222222217,0)" xlink:href="#K"/></g><g id="i"><use transform="matrix(0.04938271604938272,0,0,0.04938271604938272,0,0)" xlink:href="#J"/><use transform="matrix(0.04938271604938272,0,0,0.04938271604938272,12.790123456790125,0)" xlink:href="#D"/><use transform="matrix(0.04938271604938272,0,0,0.04938271604938272,22.66666666666667,0)" xlink:href="#C"/><use transform="matrix(0.04938271604938272,0,0,0.04938271604938272,28.54320987654322,0)" xlink:href="#S"/></g><path fill="#333" d="M182-130c37 4 62 22 62 59C244 23 116-4 24 0v-248c84 5 203-23 205 63 0 31-19 50-47 55zM76-148c40-3 101 13 101-30 0-44-60-28-101-31v61zm0 110c48-3 116 14 116-37 0-48-69-32-116-35v72" id="aj"/><path fill="#333" d="M147 0L96-86 75-71V0H25v-261h50v150l67-79h53l-66 74L201 0h-54" id="ak"/><g id="j"><use transform="matrix(0.0679012345679012,0,0,0.0679012345679012,0,0)" xlink:href="#aj"/><use transform="matrix(0.0679012345679012,0,0,0.0679012345679012,17.58641975308641,0)" xlink:href="#E"/><use transform="matrix(0.0679012345679012,0,0,0.0679012345679012,27.09259259259258,0)" xlink:href="#S"/><use transform="matrix(0.0679012345679012,0,0,0.0679012345679012,40.67283950617282,0)" xlink:href="#D"/><use transform="matrix(0.0679012345679012,0,0,0.0679012345679012,54.25308641975306,0)" xlink:href="#ak"/></g><path fill="#333" d="M190-63c-7 42-38 67-86 67-59 0-84-38-90-98-12-110 154-137 174-36l-49 2c-2-19-15-32-35-32-30 0-35 28-38 64-6 74 65 87 74 30" id="al"/><g id="k"><use transform="matrix(0.0679012345679012,0,0,0.0679012345679012,0,0)" xlink:href="#al"/><use transform="matrix(0.0679012345679012,0,0,0.0679012345679012,13.58024691358024,0)" xlink:href="#ah"/><use transform="matrix(0.0679012345679012,0,0,0.0679012345679012,28.450617283950603,0)" xlink:href="#E"/><use transform="matrix(0.0679012345679012,0,0,0.0679012345679012,37.95679012345677,0)" xlink:href="#E"/><use transform="matrix(0.0679012345679012,0,0,0.0679012345679012,47.46296296296294,0)" xlink:href="#S"/><use transform="matrix(0.0679012345679012,0,0,0.0679012345679012,61.04320987654318,0)" xlink:href="#Y"/><use transform="matrix(0.0679012345679012,0,0,0.0679012345679012,75.91358024691354,0)" xlink:href="#C"/><use transform="matrix(0.0679012345679012,0,0,0.0679012345679012,83.99382716049378,0)" xlink:href="#ai"/><use transform="matrix(0.0679012345679012,0,0,0.0679012345679012,98.38888888888884,0)" xlink:href="#H"/><use transform="matrix(0.0679012345679012,0,0,0.0679012345679012,105.17901234567897,0)" xlink:href="#Z"/><use transform="matrix(0.0679012345679012,0,0,0.0679012345679012,126.90740740740733,0)" xlink:href="#S"/></g><path fill="#333" d="M15-22v-40l146-57-146-57v-40l181 69v56" id="am"/><use transform="matrix(0.0679012345679012,0,0,0.0679012345679012,0,0)" xlink:href="#am" id="l"/><path fill="#333" d="M88-194c31-1 46 15 58 34l-1-101h50l1 261h-48c-2-10 0-23-3-31C134-8 116 4 84 4 32 4 16-41 15-95c0-56 19-97 73-99zm17 164c33 0 40-30 41-66 1-37-9-64-41-64s-38 30-39 65c0 43 13 65 39 65" id="an"/><g id="m"><use transform="matrix(0.0679012345679012,0,0,0.0679012345679012,0,0)" xlink:href="#S"/><use transform="matrix(0.0679012345679012,0,0,0.0679012345679012,13.58024691358024,0)" xlink:href="#Y"/><use transform="matrix(0.0679012345679012,0,0,0.0679012345679012,28.450617283950603,0)" xlink:href="#an"/><use transform="matrix(0.0679012345679012,0,0,0.0679012345679012,43.320987654320966,0)" xlink:href="#ai"/><use transform="matrix(0.0679012345679012,0,0,0.0679012345679012,57.71604938271602,0)" xlink:href="#H"/><use transform="matrix(0.0679012345679012,0,0,0.0679012345679012,64.50617283950615,0)" xlink:href="#Z"/><use transform="matrix(0.0679012345679012,0,0,0.0679012345679012,86.23456790123453,0)" xlink:href="#S"/></g><path fill="#333" d="M231 0h-52l-39-155L100 0H48L-1-190h46L77-45c9-52 24-97 36-145h53l37 145 32-145h46" id="ao"/><g id="n"><use transform="matrix(0.05555555555555554,0,0,0.05555555555555554,0,0)" xlink:href="#B"/><use transform="matrix(0.05555555555555554,0,0,0.05555555555555554,11.111111111111107,0)" xlink:href="#ae"/><use transform="matrix(0.05555555555555554,0,0,0.05555555555555554,23.27777777777777,0)" xlink:href="#X"/><use transform="matrix(0.05555555555555554,0,0,0.05555555555555554,35.444444444444436,0)" xlink:href="#ao"/><use transform="matrix(0.05555555555555554,0,0,0.05555555555555554,50.999999999999986,0)" xlink:href="#ai"/><use transform="matrix(0.05555555555555554,0,0,0.05555555555555554,62.77777777777776,0)" xlink:href="#H"/><use transform="matrix(0.05555555555555554,0,0,0.05555555555555554,68.33333333333331,0)" xlink:href="#Z"/><use transform="matrix(0.05555555555555554,0,0,0.05555555555555554,86.11111111111109,0)" xlink:href="#S"/><use transform="matrix(0.05555555555555554,0,0,0.05555555555555554,97.2222222222222,0)" xlink:href="#V"/><use transform="matrix(0.05555555555555554,0,0,0.05555555555555554,111.61111111111109,0)" xlink:href="#ad"/><use transform="matrix(0.05555555555555554,0,0,0.05555555555555554,117.16666666666663,0)" xlink:href="#S"/><use transform="matrix(0.05555555555555554,0,0,0.05555555555555554,128.27777777777774,0)" xlink:href="#E"/><use transform="matrix(0.05555555555555554,0,0,0.05555555555555554,136.05555555555551,0)" xlink:href="#C"/><use transform="matrix(0.05555555555555554,0,0,0.05555555555555554,142.66666666666663,0)" xlink:href="#F"/><use transform="matrix(0.05555555555555554,0,0,0.05555555555555554,149.27777777777774,0)" xlink:href="#K"/></g><path d="M199 0l-22-63H83L61 0H9l90-248h61L250 0h-51zm-33-102l-36-108c-10 38-24 72-36 108h72" id="ap"/><path d="M123 10C108 53 80 86 19 72V37c35 8 53-11 59-39L3-190h52l48 148c12-52 28-100 44-148h51" id="aq"/><path d="M15-91v-56l181-69v40L49-119l147 57v40" id="ar"/><path d="M135-194c53 0 70 44 70 98 0 56-19 98-73 100-31 1-45-17-59-34 3 33 2 69 2 105H25l-1-265h48c2 10 0 23 3 31 11-24 29-35 60-35zM114-30c33 0 39-31 40-66 0-38-9-64-40-64-56 0-55 130 0 130" id="as"/><path d="M15-22v-40l146-57-146-57v-40l181 69v56" id="at"/><g id="o"><use transform="matrix(0.05617283950617281,0,0,0.05617283950617281,0,0)" xlink:href="#p"/><use transform="matrix(0.05617283950617281,0,0,0.05617283950617281,6.684567901234564,0)" xlink:href="#ap"/><use transform="matrix(0.05617283950617281,0,0,0.05617283950617281,21.23333333333332,0)" xlink:href="#A"/><use transform="matrix(0.05617283950617281,0,0,0.05617283950617281,29.097530864197513,0)" xlink:href="#A"/><use transform="matrix(0.05617283950617281,0,0,0.05617283950617281,36.961728395061705,0)" xlink:href="#s"/><use transform="matrix(0.05617283950617281,0,0,0.05617283950617281,48.19629629629627,0)" xlink:href="#aq"/><use transform="matrix(0.05617283950617281,0,0,0.05617283950617281,59.43086419753083,0)" xlink:href="#ar"/><use transform="matrix(0.05617283950617281,0,0,0.05617283950617281,71.22716049382711,0)" xlink:href="#ap"/><use transform="matrix(0.05617283950617281,0,0,0.05617283950617281,85.77592592592588,0)" xlink:href="#as"/><use transform="matrix(0.05617283950617281,0,0,0.05617283950617281,98.07777777777773,0)" xlink:href="#as"/><use transform="matrix(0.05617283950617281,0,0,0.05617283950617281,110.37962962962958,0)" xlink:href="#x"/><use transform="matrix(0.05617283950617281,0,0,0.05617283950617281,115.99691358024684,0)" xlink:href="#N"/><use transform="matrix(0.05617283950617281,0,0,0.05617283950617281,128.2987654320987,0)" xlink:href="#u"/><use transform="matrix(0.05617283950617281,0,0,0.05617283950617281,134.98333333333326,0)" xlink:href="#P"/><use transform="matrix(0.05617283950617281,0,0,0.05617283950617281,152.95864197530855,0)" xlink:href="#r"/><use transform="matrix(0.05617283950617281,0,0,0.05617283950617281,164.1932098765431,0)" xlink:href="#N"/><use transform="matrix(0.05617283950617281,0,0,0.05617283950617281,176.49506172839494,0)" xlink:href="#u"/><use transform="matrix(0.05617283950617281,0,0,0.05617283950617281,183.17962962962952,0)" xlink:href="#at"/><path d="M-1 1.1h197v2.1H-1z"/></g></defs></g></svg>